<svg xmlns="http://www.w3.org/2000/svg" viewBox="0 0 96 96">
  <rect x="8" y="8" width="80" height="80" rx="16" fill="#b45309"/>
  <path d="M28 24h40a4 4 0 0 1 4 4v44a4 4 0 0 1-4 4H28a4 4 0 0 1-4-4V28a4 4 0 0 1 4-4z" fill="#fff7ed"/>
  <rect x="32" y="34" width="32" height="4" rx="2" fill="#b45309"/>
  <rect x="32" y="44" width="32" height="4" rx="2" fill="#d97706" opacity=".7"/>
  <rect x="32" y="54" width="24" height="4" rx="2" fill="#d97706" opacity=".7"/>
  <path d="M58 20v18l6-5 6 5V20z" fill="#dc2626"/>
</svg>
